<?xml version="1.0" encoding="UTF-8"?>
<svg id="_Слой_1" data-name="Слой 1" xmlns="http://www.w3.org/2000/svg" viewBox="0 0 426.83 426.89">
  <defs>
    <style>
      .cls-1 {
        fill: #492618;
        stroke-width: 0px;
      }
    </style>
  </defs>
  <path class="cls-1" d="M133.26,142.4c-1.89,1.22-3.97,2.61-6.28,2.76-1.19.07-2.33-.21-3.44-.63-.88-.34-2.21-.76-2.71-1.61-.57-.96-2.07-.09-1.5.88.65,1.1,1.85,1.61,2.97,2.09,1.34.58,2.74,1.02,4.21,1.03,2.83,0,5.33-1.53,7.62-3.01.94-.6.07-2.11-.88-1.5Z"/>
  <path class="cls-1" d="M123.82,133.8c.09-.15.15-.32.2-.49.05-.17.09-.35.08-.52-.02-.26-.11-.5-.3-.68-.02-.02-.05-.04-.08-.06-.02-.09-.06-.17-.13-.23-.17-.13-.33-.24-.54-.3-.15-.04-.32-.07-.48-.05-.36.03-.73.17-.97.45-.23.28-.38.63-.36,1,.02.37.17.73.45.98.59.53,1.65.67,2.11-.1Z"/>
  <path class="cls-1" d="M132.1,134.99c.09-.15.15-.32.2-.49.05-.17.09-.35.08-.52-.02-.26-.11-.5-.3-.68-.02-.02-.05-.04-.08-.06-.02-.09-.06-.17-.13-.23-.17-.13-.33-.24-.54-.3-.15-.04-.32-.07-.48-.05-.36.03-.73.17-.97.45-.23.28-.38.63-.36,1,.02.37.17.73.45.98.59.53,1.65.67,2.11-.1Z"/>
  <path class="cls-1" d="M141.36,149.95c.92-1.46,1.49-3.17,1.49-4.9.17-.11.31-.29.39-.5,1.11-3.04.42-6.38-1.58-8.76-.71-4.55-2.8-8.87-6.43-11.76-2.82-2.25-6.92-3-10.44-3.08-4.05-.1-7.5,1.66-10.8,3.84-2.62,1.72-4.54,4.01-5.81,6.6-.28.15-.55.31-.81.49-.96.65-1.73,1.5-2,2.66-.19.83-.13,1.7.17,2.49-5.33,3.59-9.75,8.49-12.63,14.25-3.07,6.14-4.57,13.5-1.14,19.82.53.98,2.03.11,1.5-.88-3.25-6-1.51-13.08,1.51-18.78,1.89-3.58,4.41-6.79,7.37-9.52-2.87,3.58-5.49,7.51-7.21,11.66-1.06,2.56-1.32,5.73-1.31,8.48,0,2.89.65,5.77,2.34,8.15.64.9,2.15.04,1.5-.88-1.62-2.28-2.15-4.98-2.1-7.74.05-2.76.34-5.75,1.58-8.25,2.4-4.85,5.58-9.35,9.15-13.41.07.02.14.05.21.06.02,1.42.17,2.86.47,4.29,0,.03.03.05.04.08,0,.14.04.28.16.43,2.29,2.98,4.48,5.72,7.74,7.7,3.34,2.03,7.01,3,10.84,3.6,1.67.26,3.24.33,4.84-.04-1.91,3.92-4.09,7.73-6.62,11.28-2.54,3.57-5.79,6.83-10.11,8.02-.45-1.64-1.17-3.25-2.61-4.17-1.07-.68-2.34-.76-3.51-1.2-1.16-.43-1.91-1.34-2.3-2.49-.65-1.93-.81-5.84,1.19-7.04.96-.57.09-2.06-.87-1.5-.25-.08-.54-.03-.76.25-1.55,1.95-2.77,4.09-3.59,6.45-.71,2.05-1.23,4.69-3.73,5.14-2.21.4-4.19.15-5.87,1.94-1.52,1.63-2.03,3.81-2.19,5.97-.41,5.57-.17,11.29.2,16.86.36,5.55,1.05,11.1,2.19,16.55.46,2.19.75,4.92,2.19,6.74.24.3.51.55.8.78-.07.12-.13.25-.14.42-.26,4.39-.42,8.78-.48,13.18-.03,2.17,0,4.35-.32,6.5-.31,2.03-.84,4.04-1.31,6.04-1.92,8.23-3.98,16.48-7.18,24.32-.02.05-.07.14-.14.26-1.04-.33-2.18-.15-2.64,1.11-.56,1.55,1.18,2.61,2.51,1.99.31-.15.56-.37.77-.61h0c.69.66,1.41,1.29,2.22,1.8,1.6,1.02,3.43,1.51,5.28.98,1.07-.31.62-1.98-.46-1.68-2.55.73-4.42-1.14-6.16-2.69.47-1.1.9-2.21,1.32-3.33,1.81-4.84,3.23-9.82,4.5-14.83.64-2.51,1.23-5.03,1.82-7.55.55-2.37,1.16-4.73,1.38-7.16.27-3,.15-6.05.24-9.06.08-2.95.21-5.9.38-8.85,1.1.37,2.32.46,3.48.42,1.31-.05,2.6-.24,3.9-.34,1.49-.11,2.85.06,4.32.24,1.01.12,1.89-.06,2.67-.48,2.84,7.8,5.06,15.81,7.02,23.87,1,4.11,1.94,8.23,2.85,12.37.88,4.02,1.65,8.11,1.51,12.24-1.03.31-1.9,1.13-1.53,2.32.43,1.4,2.3,1.68,2.95.3.13-.28.2-.59.24-.91.3.07.6.15.91.19.72.1,1.46.06,2.16-.14,1.42-.39,2.59-1.38,2.92-2.84.24-1.09-1.43-1.55-1.68-.46-.2.89-.85,1.39-1.7,1.63-.9.25-1.67.01-2.51-.14,0-.02,0-.04,0-.06.04-1.38-.02-2.76-.15-4.14-.47-4.91-1.71-9.74-2.81-14.54-1.12-4.89-2.29-9.76-3.61-14.6-1.48-5.45-3.15-10.84-5.1-16.14-.01-.04-.04-.06-.05-.09.24-.27.47-.56.67-.88,1.3-2.06,1.96-4.64,2.44-7,.53-2.59.7-5.22.64-7.87-.13-5.68-.49-11.38-.79-17.06-.05-1.02-.12-2.04-.21-3.06,5.52-2.78,9.71-7.45,14.09-11.7,1.07-1.03,2.02-2.13,2.63-3.5.64-1.44,1.12-2.97,1.64-4.46,1.1-3.19,2.09-6.42,3.01-9.66,1.75-.8,3.53-2,4.34-3.67.28.01.56-.09.75-.39ZM141.93,140.36c.07.41.1.83.09,1.25-.05-.09-.11-.19-.16-.28.03-.32.05-.65.07-.98ZM141.09,145.73c-.04.33-.11.65-.19.97-.01-.07-.02-.14-.04-.21.08-.25.16-.5.22-.76ZM114.02,208.08c-.27,2.6-.89,5.23-1.86,7.66-.37.92-.83,1.89-1.55,2.59-1.1,1.06-2.29.73-3.67.54-2.53-.34-5.02.28-7.55.3-1.19,0-2.48-.09-3.47-.83-.98-.73-1.33-1.93-1.63-3.06-2.69-10.35-3.37-21.24-3.27-31.9.02-2.72-.3-6,1.1-8.45.66-1.15,1.65-1.96,2.98-2.18,1.2-.2,2.44-.07,3.6-.48,2.01-.71,2.96-2.61,3.62-4.5.25-.71.5-1.39.77-2.07.11,1.13.38,2.21.77,3.07.78,1.7,2.17,2.64,3.94,3.12,1.07.29,2.18.46,2.95,1.34.77.89,1.09,2.11,1.37,3.22,1.28,5.1,1.28,10.46,1.53,15.68.25,5.26.91,10.69.36,15.95ZM131.83,162.52c-.5,1.47-.98,2.95-1.55,4.38-.61,1.53-1.63,2.66-2.81,3.78-4.02,3.85-7.8,8.05-12.73,10.74-.15-1.37-.34-2.73-.62-4.08-.02-.1-.04-.2-.06-.3,4.42-1.19,7.84-4.34,10.54-7.93,3.16-4.19,5.75-8.85,7.98-13.59.03-.07.04-.14.05-.21.57-.22,1.12-.46,1.67-.73-.77,2.66-1.58,5.3-2.47,7.92ZM137.24,138.79c1.04.82,2.11,1.83,2.87,3-.07.69-.17,1.39-.3,2.1-.6-1.03-1.37-1.96-2.27-2.68-.37-.3-.87-.35-1.23,0-.31.3-.36.93,0,1.23,1.31,1.07,2.33,2.54,2.77,4.17-.56,1.62-1.35,3.13-2.46,4.34-1,1.08-2.35,1.78-3.69,2.36-1.69.74-3.4,1.4-5.28,1.32-3.71-.17-7.69-1.23-10.96-2.98-1.68-.9-3.29-1.98-4.63-3.33-1.34-1.34-2.45-2.89-3.6-4.38,0,0-.01,0-.02-.01,0-.03,0-.05,0-.08-.29-1.36-.43-2.77-.43-4.18.37-.09.72-.15,1.09-.17.99-.05,1.98.13,2.87.56.42.2.94.12,1.19-.31.22-.38.11-.98-.31-1.19-1.04-.5-2.16-.78-3.33-.8-.48,0-.95.04-1.42.13.01-.11.02-.23.03-.34,0-.01,0-.02.02-.04.01-.02.02-.03.02-.03,0,0,0,0,.02-.02.04-.05.09-.1.13-.14.1-.1.2-.2.31-.29.05-.04.09-.08.14-.12,0,0,.03-.02.05-.04.21-.15.43-.29.66-.42.27-.15.41-.21.63-.29.25-.09.5-.16.75-.21.11-.02.23-.05.35-.06.02,0,.04,0,.06,0,.08,0,.15-.01.23-.02.26-.02.52-.02.78,0,.05,0,.33.04.23.02.15.02.3.05.45.09.46.11.94-.14,1.07-.61.12-.44-.15-.96-.61-1.07-1.3-.3-2.7-.23-3.95.26-.28.11-.56.24-.85.39.2-.73.44-1.45.74-2.15,1.45-.71,3.06-1.04,4.68-.93.47.03.87-.42.87-.87,0-.5-.4-.84-.87-.87-1.15-.08-2.32.04-3.44.33.61-.93,1.34-1.8,2.2-2.57,1.18-1.07,2.54-1.91,3.92-2.7,1.59-.92,3.19-1.83,5-2.22,3.31-.71,7.42-.11,10.49,1.27,3.86,1.73,6.2,5.58,7.29,9.74-.06-.04-.12-.08-.18-.12-.97-.56-1.85.94-.88,1.5.59.34,1.12.76,1.57,1.23.12.88.18,1.74.2,2.6-.55-.59-1.15-1.12-1.75-1.59-.37-.29-.86-.36-1.23,0-.3.3-.37.94,0,1.23Z"/>
  <path class="cls-1" d="M362.08,265.39c-.59-.24-1.19-.2-1.73.02-.16-.62-.26-1.29-.38-1.76-.33-1.24-.64-2.48-.95-3.73-.57-2.34-1.1-4.68-1.6-7.04-1.98-9.49-3.3-19.12-3.84-28.81-.3-5.44-.34-10.89-.14-16.33.03-.82-.89-1.03-1.4-.65-2.86-11.23-6.62-22.22-11.26-32.83.1-.28.11-.61-.03-1.01-.16-.46-.48-.78-.88-1.02-.47-1.04-.93-2.09-1.42-3.13-.47-1.01-1.97-.13-1.5.88.25.53.48,1.06.72,1.59-11.15-2.67-22.3-5.67-33.66-7.29-1.09-.16-1.57,1.52-.46,1.68,10.64,1.52,21.09,4.24,31.53,6.78.1.13.24.25.47.29.46.09,1.02.13,1.58.21.19.04.37.09.56.13.1.02.18.01.27,0,.23.05.44.12.63.21.03.07.07.14.1.22-.01,0-.02,0-.03,0-.15.04-.29.08-.44.12-.58.16-1.17.28-1.77.37-2.02.32-4.09.29-6.13.26-4.47-.07-8.93-.15-13.4-.23-4.47-.08-8.93-.12-13.39-.49-3.07-.25-6.12-.62-9.17-1.02,2.62-1.12,5-2.76,6.76-5.04,2.38-3.09,3.14-6.74,2.56-10.55-1-6.68-5.66-12.81-12.08-15.1-6.74-2.4-14.29-.28-18.82,5.21-4.56,5.53-7.85,14.01-3.34,20.57,1.98,2.89,4.68,4.5,7.69,5.32,1.13,2.5,4.21,2.94,6.73,2.72,2.68-.23,5.27-.84,7.78-1.77,7.42.97,14.8,1.7,22.3,1.82,4.23.07,8.46.14,12.69.22,3.77.06,7.67.36,11.39-.47.41-.09.9-.21,1.36-.38,4.72,10.86,8.51,22.1,11.35,33.59.06.24.19.39.35.49-4.9,10.48-8.29,21.56-11.37,32.69-1.59,5.74-3.1,11.49-4.74,17.21-.8,2.8-1.8,5.58-2.52,8.41-3.17.77-6.1.56-8.86-1.34-.92-.64-1.79.87-.88,1.5,1.72,1.18,3.68,1.88,5.76,2.05.93.08,1.87.03,2.79-.13.37-.06.73-.17,1.09-.26.08.31.23.61.48.87.59.62,1.59.84,2.31.3.76-.57.75-1.62.2-2.34-.29-.39-.66-.6-1.06-.71,1.33-4.62,2.76-9.2,4.03-13.83,2.62-9.55,5.1-19.15,8.29-28.53,1.48-4.35,3.13-8.64,5-12.84-.1,10.18.69,20.36,2.25,30.43.9,5.78,2.05,11.52,3.44,17.21.34,1.4.7,2.8,1.07,4.19.19.72.35,1.51.62,2.25-.59.79-1.03,1.68-1.78,2.36-1.14,1.03-2.6,1.63-4.13,1.75-1.11.09-1.12,1.82,0,1.74,1.75-.14,3.39-.71,4.78-1.79.66-.51,1.23-1.09,1.71-1.77.16-.23.31-.46.45-.7,1.06.8,2.9.75,3.26-.79.22-.9-.39-1.7-1.19-2.02ZM284.68,174.15c-1.39.16-3.44.35-4.81-.38,2.42.29,4.94.21,7.42-.07-.87.19-1.74.35-2.62.45ZM293.8,170.96c-.04-.08-.08-.16-.12-.25,0-.02-.04-.1-.06-.14-.14-.36-.25-.72-.33-1.1-.02-.08-.03-.16-.04-.24,0,0-.02-.14-.02-.15-.02-.21-.03-.42-.03-.63,0-.18,0-.37.03-.55,0-.04,0-.09.01-.13,0-.01,0,0,0-.02.02-.1.04-.21.06-.31.09-.44-.13-.96-.61-1.07-.43-.1-.97.13-1.07.61-.28,1.34-.17,2.74.3,4.02-.07,0-.14.01-.2,0-.14,0-.28-.01-.43-.03,0,0-.13-.01-.17-.02-.04,0-.15-.02-.17-.03-.3-.05-.59-.12-.88-.21-.29-.09-.51-.18-.72-.28-.26-.12-.51-.26-.74-.42-.27-.18-.39-.26-.61-.46-.09-.08-.25-.23-.28-.27.02.03-.17-.27-.12-.17,0-.01-.03-.09-.04-.13,0-.03,0-.11,0-.13,0,0,0,0,0-.01.01,0,.02-.01.02-.02.3-.34.31-.87-.02-1.19-.33-.33-.9-.34-1.23,0-.65.69-.67,1.75-.13,2.51.35.49.82.9,1.32,1.24-.46-.01-.91-.01-1.37-.04-.82-.05-1.54-.24-2.23-.7-.76-.5-1.45-1.12-2.15-1.69-.36-.29-.87-.36-1.23,0-.3.3-.37.93,0,1.23.77.63,1.53,1.29,2.35,1.86.13.09.27.16.4.24-1.68.02-3.35-.12-4.94-.5-.21-.22-.52-.28-.8-.22-1.75-.52-3.4-1.35-4.88-2.62-5.56-4.8-3.85-12.76-.28-18.18,1.85-2.8,4.16-5.29,7.28-6.64,2.77-1.2,5.94-1.54,8.91-1,6.02,1.08,10.81,5.78,12.69,11.51,1.15,3.5,1.3,7.34-.56,10.62-1.54,2.72-4.03,4.63-6.83,5.87-.03-.06-.07-.12-.11-.18Z"/>
  <path class="cls-1" d="M287.6,168.84s-.01.02-.02.03c.04-.05.04-.04.02-.03Z"/>
  <path class="cls-1" d="M282.19,150.71c-.1-.51-.53-.93-1.04-1.03-.19-.04-.39-.03-.57,0-.2-.01-.4.02-.59.1-.07.01-.14.03-.21.06-.5.23-.99.65-1,1.25-.02.7.67,1.12,1.24,1.34.57.21,1.22.13,1.68-.27.41-.35.58-.93.48-1.45Z"/>
  <path class="cls-1" d="M291.64,150.5c-.19-.04-.39-.03-.57,0-.2-.01-.4.02-.59.1-.07.01-.14.03-.21.06-.5.23-.99.65-1,1.25-.02.7.67,1.12,1.24,1.34.57.21,1.22.13,1.68-.27.41-.35.58-.93.48-1.45-.1-.51-.53-.93-1.04-1.03Z"/>
  <path class="cls-1" d="M287.74,162.92c-1.8.45-3.84.95-5.5.06-.41-.22-.95-.1-1.19.31-.23.39-.1.97.31,1.19,2.16,1.16,4.58.68,6.84.12.46-.11.73-.62.61-1.07-.13-.46-.61-.72-1.07-.61Z"/>
  <path class="cls-1" d="M304.13,178.92l-2.33-.03-31.39,46.16h-3.67v-45.8h-2.06v95.99h2.06v-47.58h2.6l33.92,41.08,5.34,6.5h.02s.58.69.58.69l1.51-1.75-39.35-47.15,32.76-48.1ZM269.44,227.65h.08l1.06,1.29-1.14-1.29Z"/>
  <path class="cls-1" d="M241.97,183.82c-4.11-2.12-9.05-3.18-14.8-3.18h-23.79v94.06h2.01v-40.87h21.78c5.75,0,10.69-1.06,14.8-3.18,4.12-2.12,7.28-5.16,9.49-9.14,2.21-3.97,3.31-8.73,3.31-14.28s-1.1-10.41-3.31-14.34c-2.21-3.93-5.37-6.96-9.49-9.08ZM246.24,225.22c-4.35,4.28-10.64,6.42-18.87,6.42h-21.98v-48.8h21.98c8.23,0,14.52,2.12,18.87,6.36,4.35,4.24,6.52,10.25,6.52,18.04s-2.18,13.7-6.52,17.98Z"/>
  <path class="cls-1" d="M179.16,183.82c-4.11-2.12-9.05-3.18-14.8-3.18h-23.79v94.06h2.01v-40.87h21.78c5.75,0,10.69-1.06,14.8-3.18,4.12-2.12,7.28-5.16,9.49-9.14,2.21-3.97,3.31-8.73,3.31-14.28s-1.1-10.41-3.31-14.34c-2.21-3.93-5.37-6.96-9.49-9.08ZM183.43,225.22c-4.35,4.28-10.64,6.42-18.87,6.42h-21.98v-48.8h21.98c8.23,0,14.52,2.12,18.87,6.36,4.35,4.24,6.52,10.25,6.52,18.04s-2.18,13.7-6.52,17.98Z"/>
</svg>