<?xml version="1.0" encoding="UTF-8"?>
<svg id="_Слой_1" data-name="Слой 1" xmlns="http://www.w3.org/2000/svg" viewBox="0 0 426.83 426.89">
  <defs>
    <style>
      .cls-1 {
        fill: #492618;
        stroke-width: 0px;
      }
    </style>
  </defs>
  <path class="cls-1" d="M137.6,132.43c-1.99,1.29-4.2,2.79-6.64,2.94-1.26.08-2.47-.22-3.64-.67-.86-.33-2.25-.76-2.74-1.6-.83-1.41-3.03-.13-2.19,1.28.74,1.25,2.06,1.83,3.34,2.38,1.5.65,3.08,1.15,4.73,1.16,3.12.01,5.89-1.67,8.43-3.3,1.37-.88.1-3.08-1.28-2.19Z"/>
  <path class="cls-1" d="M124.92,123.44c.08.11.16.22.26.31.38.34.83.52,1.33.56.56.05,1.11-.24,1.4-.72.11-.19.18-.4.25-.6.07-.2.12-.44.1-.65-.03-.35-.14-.67-.4-.92-.01-.01-.03-.02-.05-.03-.04-.11-.1-.21-.19-.28-.22-.18-.43-.31-.7-.39-.19-.06-.4-.08-.59-.07-.29.02-.52.08-.79.21-.09.04-.16.1-.23.16-.08.06-.16.12-.23.2-.3.36-.49.81-.47,1.28.01.29.08.52.2.78.03.06.07.12.11.17Z"/>
  <path class="cls-1" d="M134.69,124.96c.08.11.16.22.26.31.38.34.83.52,1.33.56.56.05,1.11-.24,1.4-.72.11-.19.18-.4.25-.6.07-.2.12-.44.1-.65-.03-.35-.14-.67-.4-.92-.01-.01-.03-.02-.05-.03-.04-.11-.1-.21-.19-.28-.22-.18-.43-.31-.7-.39-.19-.06-.4-.08-.59-.07-.29.02-.52.08-.79.21-.09.04-.16.1-.23.16-.08.06-.16.12-.23.2-.3.36-.49.81-.47,1.28.01.29.08.52.2.78.03.06.07.12.11.17Z"/>
  <path class="cls-1" d="M146.83,141.06c1-1.58,1.61-3.44,1.65-5.31.19-.16.33-.38.42-.62,1.23-3.36.47-7.06-1.71-9.71-.81-5.04-3.16-9.82-7.22-12.98-3.19-2.48-7.91-3.32-11.86-3.32-4.25,0-7.93,1.93-11.4,4.22-2.86,1.88-4.97,4.37-6.37,7.2-.27.15-.54.32-.8.49-1.11.75-2.01,1.74-2.32,3.08-.2.88-.16,1.81.12,2.67-5.72,3.9-10.46,9.18-13.57,15.37-3.4,6.77-5.05,14.89-1.26,21.86.19.35.46.54.76.6-.22.16-.44.34-.64.53-1.83,1.74-2.48,4.23-2.69,6.67-.52,6.02-.21,12.26.17,18.28.39,6.08,1.13,12.14,2.36,18.11.5,2.43.83,5.38,2.34,7.44.26.35.55.64.86.9-.04.11-.07.23-.07.36-.56,9.44-1.24,18.89-2.84,28.22-.78,4.57-1.79,9.1-3.02,13.57-.61,2.2-1.22,4.43-2.05,6.56-.69,1.76-1.66,3.59-1.35,5.55.34,2.21,2.33,3.44,4.3,4.05,2.56.79,5.2,1.38,7.79,2.06,1.58.41,2.26-2.03.68-2.45-2.17-.57-4.34-1.13-6.51-1.7-1.95-.51-4.21-1.11-3.66-3.6.43-1.93,1.44-3.76,2.04-5.64.66-2.05,1.23-4.14,1.77-6.22,2.18-8.34,3.46-16.88,4.28-25.44.45-4.68.77-9.36,1.05-14.05,1.02.29,2.11.39,3.18.37,1.5-.03,2.98-.25,4.48-.37,1.57-.12,3.02.02,4.57.24,1.06.15,2.02,0,2.86-.38,2.87,7.92,5.29,15.99,7.33,24.16,2.18,8.72,4.38,17.47,5.89,26.33.2,1.21.38,2.41.57,3.62.12.79.31,1.63.9,2.22.7.7,1.56.69,2.45.51,1.31-.26,2.56-.34,3.9-.22,1.63.15,1.62-2.39,0-2.54-.95-.09-1.89-.1-2.84,0-.5.06-1.01.13-1.5.25,0,0-.23.05-.26.13-.07-.14-.1-.4-.12-.49-.44-1.91-.6-3.93-.95-5.86-.76-4.2-1.68-8.37-2.66-12.53-1.88-8-3.79-16-6.15-23.88-1.35-4.49-2.83-8.95-4.45-13.35.25-.29.48-.6.69-.95,1.37-2.23,2.09-5,2.61-7.54.58-2.85.78-5.73.71-8.64-.14-6.19-.54-12.4-.87-18.58-.05-1.01-.12-2.02-.2-3.03,5.85-3,10.28-7.94,14.96-12.44,1.19-1.14,2.31-2.35,3.01-3.85.77-1.64,1.31-3.42,1.9-5.13,1.17-3.4,2.23-6.84,3.21-10.31,1.86-.87,3.7-2.14,4.63-3.89.34-.04.66-.21.89-.58ZM108.23,130.64c.05,1.38.21,2.77.49,4.15,0,.22.07.45.25.69,2.56,3.32,5,6.37,8.65,8.55,3.72,2.23,7.82,3.28,12.08,3.91,1.46.22,2.93.19,4.38-.04-2.01,4.05-4.28,8-6.91,11.68-2.65,3.71-6.02,7.11-10.46,8.45-.54-1.8-1.38-3.52-3.04-4.49-1.18-.69-2.54-.76-3.78-1.26-1.18-.47-1.89-1.44-2.25-2.63-.58-1.9-.79-5.9,1.2-7.08,1.35-.79.23-2.83-1.1-2.28-.36-.09-.75,0-1.07.41-1.68,2.1-3,4.4-3.9,6.94-.69,1.93-1.14,4.75-3.4,5.43-.06.02-.12.02-.18.04.32-.35.42-.85.05-1.36-1.74-2.45-2.3-5.34-2.23-8.31.07-2.99.4-6.19,1.77-8.89,2.53-5.01,5.77-9.67,9.45-13.91ZM96.32,142.72c1.21-2.3,2.67-4.45,4.31-6.45-1.79,2.62-3.38,5.36-4.61,8.2-1.26,2.92-1.58,6.52-1.55,9.68.03,3.14.74,6.3,2.58,8.88.09.13.2.23.32.31-.54.03-1.09.05-1.61.16-.34.07-.67.17-1,.29.14-.31.15-.69-.06-1.08-3.46-6.37-1.58-13.93,1.62-20ZM116.53,204.45c-.34,2.76-1.01,5.65-2.16,8.2-.41.9-.93,1.88-1.75,2.47-1.09.78-2.4.28-3.61.14-2.92-.34-5.79.49-8.7.34-1.05-.05-2.21-.25-3.02-.97-.95-.84-1.25-2.21-1.54-3.38-2.78-11.2-3.55-22.83-3.43-34.33.03-2.9-.32-6.43,1.29-8.99.78-1.24,1.86-1.86,3.3-2.03,1.31-.15,2.6-.1,3.84-.61,2.17-.91,3.16-3.04,3.88-5.14.1-.3.21-.59.31-.89.18.9.45,1.74.8,2.44,1,1.97,2.72,2.89,4.79,3.42,1.08.27,2.11.54,2.8,1.49.74,1.01,1.04,2.35,1.32,3.55,1.32,5.59,1.3,11.45,1.57,17.15.27,5.66.99,11.52.3,17.16ZM135.89,154.46c-.59,1.74-1.12,3.55-1.88,5.22-.67,1.46-1.78,2.54-2.92,3.62-4.18,3.99-8.09,8.32-13.14,11.19-.16-1.34-.35-2.67-.62-4,4.73-1.37,8.41-4.78,11.33-8.65,3.42-4.54,6.24-9.59,8.64-14.73.01-.03.02-.05.03-.08.34-.13.68-.27,1.01-.42-.77,2.63-1.58,5.25-2.46,7.84ZM141.85,129.03c1.09.85,2.21,1.9,3.01,3.11-.04.43-.1.86-.17,1.3-.59-.85-1.27-1.62-2.05-2.25-.53-.43-1.28-.52-1.8,0-.45.45-.54,1.36,0,1.8,1.35,1.09,2.41,2.58,2.9,4.25-.54,1.53-1.28,2.97-2.27,4.18-1.03,1.25-2.46,2.05-3.92,2.71-1.79.81-3.69,1.59-5.69,1.52-3.98-.13-8.33-1.3-11.84-3.17-1.78-.95-3.5-2.09-4.94-3.52-1.45-1.44-2.65-3.11-3.9-4.73,0-.02,0-.04,0-.05-.29-1.36-.44-2.77-.45-4.18.08-.02.15-.04.23-.06.05,0,.1-.02.16-.03.02,0,.02,0,.07,0,.13,0,.26-.02.4-.03.28-.01.57-.01.85,0,.04,0,.28.03.32.03.1.02.2.03.3.05.28.06.55.13.83.21.14.05.29.1.43.15.14.06.14.06.01,0,.07.03.14.06.21.1.6.29,1.4.18,1.74-.46.3-.57.18-1.43-.46-1.74-1.19-.57-2.45-.89-3.77-.91-.35,0-.7.02-1.05.06.1-.11.21-.21.32-.3.05-.04.1-.08.14-.12.23-.16.46-.31.7-.45.13-.07.27-.14.4-.2,0,0,0,0,0,0,.07-.02.13-.05.2-.08.27-.1.54-.17.82-.23.05,0,.17-.05.27-.07,0,0,.01,0,.08,0,.08,0,.17-.02.25-.02.28-.02.57-.02.85,0,.07,0,.13.01.2.02.13.01.09,0,.03-.01.12,0,.36.09.42.1.65.15,1.41-.2,1.56-.89.15-.65-.2-1.4-.89-1.56-1.46-.34-3.05-.27-4.45.28-.11.04-.22.09-.33.14.16-.52.35-1.02.56-1.52,1.49-.71,3.09-1,4.81-.89.66.04,1.3-.62,1.27-1.27-.03-.73-.56-1.22-1.27-1.27-.99-.07-1.99,0-2.97.18.5-.67,1.06-1.31,1.68-1.89,1.31-1.23,2.86-2.17,4.41-3.06,1.66-.96,3.33-1.91,5.23-2.33,3.44-.76,7.6-.11,10.84,1.19,3.25,1.3,5.54,4.39,7.02,7.45.37.76.68,1.57.93,2.4-1.22-.22-2.12,1.61-.85,2.35.6.35,1.13.76,1.59,1.23.07.61.13,1.22.16,1.83-.43-.41-.88-.8-1.32-1.15-.54-.42-1.27-.53-1.8,0-.44.44-.54,1.37,0,1.8Z"/>
  <path class="cls-1" d="M355.18,146.2c-2.72-2.96-6-5.48-9.96-6.47-3.59-.89-7.49-.67-10.95.64-7,2.64-11.58,9.3-12.44,16.62-.44,3.75.19,7.49,2.18,10.62-3.49,2.6-6.6,5.73-9.6,8.86-4.03,4.2-7.86,8.59-11.54,13.1-3.31,4.06-6.55,8.23-9.38,12.64-2.45,3.81-4.84,8.31-4.81,12.95l-1.58,1.35v-51.52h-2.45v109.67h2.45v-54.37h1.93l42.97,54.17c.2.55.73.99,1.34.96,2.16-.12,4.32-.38,6.42-.9,2.04-.51,4.01-1.26,5.96-2.04.72-.29,1.22-.96,1-1.76-.19-.68-1.04-1.29-1.76-1-1.9.76-3.81,1.49-5.79,2-1.47.38-2.93.6-4.42.74l-42.12-52.26c-.37-.66-.7-1.34-.94-2.07-.15-.45-.25-.9-.33-1.35l49.86-42.58c6.36-.27,12.81-1.61,16.92-6.87,5.22-6.68,2.22-15.47-2.98-21.13ZM295.25,204.19c5.52-8.85,12.54-16.96,19.66-24.55,3.31-3.53,6.74-7.17,10.66-10.04,2.72,2.92,6.45,4.5,10.32,5.18l-44.44,38.02c.58-3.07,2.22-6.06,3.81-8.61ZM340.54,168.94s0,0,0,0c0,0,0,0,0,0,0-.03,0-.06,0-.08,0,.02,0,.04,0,.06,0,0,0,0,0,0ZM340.55,168.97s0,.01,0,.02c0,.02,0,0,0,.01,0-.01,0-.02,0-.03,0,0,0,0,0,0ZM340.57,168.99c.04.05.04.05.04.03.05.05.09.1.15.15-.07-.06-.11-.09-.13-.1-.02-.02-.03-.04-.07-.08ZM356.91,164.7c-2.22,3.7-5.87,5.47-9.89,6.31.52-.56,1.02-1.15,1.52-1.72.45-.52.51-1.29,0-1.8-.46-.46-1.35-.52-1.8,0-.62.71-1.21,1.45-1.87,2.12-.6.6-1.21.93-2.03,1.15-.15.04-.31.07-.47.11.15-.2.29-.41.39-.63.28-.58.38-1.15.28-1.79-.1-.63-.49-1.11-.99-1.47-.54-.39-1.44-.11-1.74.46-.3.56-.16,1.11.24,1.53,0,.03-.02.06-.02.08-.04.08-.09.15-.14.23,0,.01-.04.06-.07.09-.02.03-.05.06-.06.07-.06.07-.11.13-.17.2-.1.11-.2.21-.31.31-.12.11-.24.22-.36.32-.05.04-.09.08-.14.12-.02.01-.04.02-.05.03-.25.18-.51.34-.78.48-.14.08-.29.14-.43.21,0,0,0,0,0,0-.06.02-.12.05-.18.07-.2.07-.42.13-.62.18.03-.26.05-.51.06-.78.02-.98-.15-2-.51-2.91-.13-.32-.28-.58-.58-.76-.27-.16-.67-.23-.98-.13-.6.19-1.15.9-.89,1.56.15.38.27.76.35,1.16.01.06.09.3.06.34-.03-.2-.03-.22-.01-.08,0,.03,0,.06,0,.09.02.22.03.43.03.65,0,.2-.01.4-.03.6,0,.02,0,.03,0,.05-.02.1-.03.2-.05.3-.03.16-.08.32-.12.48-2.6-.69-5.05-1.94-6.95-3.89-2.44-2.5-3.39-5.71-3.32-9.15.13-6.28,3.58-12.51,9.24-15.41,2.9-1.49,6.33-2.06,9.56-1.6,3.4.48,6.27,2.17,8.75,4.5,4.79,4.5,8.97,11.91,5.12,18.32Z"/>
  <path class="cls-1" d="M346.49,147.42c-.13-.09-.28-.15-.43-.21-.16-.07-.31-.13-.48-.17-.04-.01-.09,0-.13,0,0,0,0,0,0,0-.15-.04-.33-.06-.49-.07-.11,0-.23,0-.34.03-.17,0-.35.02-.52.05-.38.07-.71.28-1,.52-.29.24-.51.62-.61.99-.09.38-.1.82.03,1.19.13.38.33.76.64,1.02.14.12.29.25.47.34.27.14.47.2.77.24.39.05.79.02,1.16-.12.22-.09.44-.18.64-.31.19-.13.39-.28.55-.44.39-.39.71-.93.67-1.5-.02-.31-.09-.62-.27-.89-.2-.3-.37-.44-.66-.65Z"/>
  <path class="cls-1" d="M335.6,151.68c-.13-.09-.28-.15-.43-.21-.16-.07-.31-.13-.48-.17-.04-.01-.09,0-.13,0,0,0,0,0,0,0-.15-.04-.33-.06-.49-.07-.11,0-.23,0-.34.03-.17,0-.35.02-.52.05-.38.07-.71.28-1,.52-.29.24-.51.62-.6.99-.09.38-.1.82.03,1.19.13.38.33.76.64,1.02.14.12.29.25.47.34.27.14.47.2.77.24.39.05.79.02,1.16-.12.22-.09.44-.18.64-.31.19-.13.39-.28.55-.44.39-.39.71-.93.67-1.5-.02-.31-.09-.62-.27-.89-.2-.3-.37-.44-.66-.65Z"/>
  <path class="cls-1" d="M345.01,161.54c.23-.18-.13.08-.18.11-.09.06-.18.11-.28.16-.11.06-.22.11-.33.16-.05.02-.1.04-.15.06-.24.08-.48.15-.72.21-.1.02-.21.05-.32.07-.03,0-.23.04-.28.05-.02,0-.01,0-.03,0-.08,0-.16.02-.24.02-.12,0-.24.02-.37.02-.29.01-.57.01-.86,0-.57-.01-1.15-.05-1.72-.09-.66-.05-1.3.62-1.27,1.27.03.73.56,1.22,1.27,1.27,1.32.09,2.61.14,3.92-.06,1.24-.19,2.37-.7,3.35-1.47.52-.41.47-1.37,0-1.8-.56-.51-1.24-.44-1.8,0Z"/>
  <path class="cls-1" d="M190,169.18c-4.77-2.46-10.5-3.69-17.17-3.69h-27.6v109.13h2.33v-47.41h25.27c6.68,0,12.4-1.23,17.17-3.69,4.77-2.46,8.44-5.99,11-10.6,2.56-4.61,3.84-10.13,3.84-16.57s-1.28-12.07-3.84-16.64c-2.56-4.56-6.23-8.07-11-10.53ZM194.95,217.21c-5.05,4.96-12.34,7.44-21.89,7.44h-25.5v-56.61h25.5c9.55,0,16.84,2.46,21.89,7.38,5.04,4.92,7.57,11.9,7.57,20.93s-2.52,15.9-7.57,20.86Z"/>
  <path class="cls-1" d="M259.22,169.18c-4.77-2.46-10.5-3.69-17.17-3.69h-27.6v109.13h2.33v-47.41h25.27c6.67,0,12.4-1.23,17.17-3.69,4.77-2.46,8.44-5.99,11-10.6,2.56-4.61,3.84-10.13,3.84-16.57s-1.28-12.07-3.84-16.64c-2.56-4.56-6.23-8.07-11-10.53ZM264.17,217.21c-5.05,4.96-12.34,7.44-21.89,7.44h-25.5v-56.61h25.5c9.55,0,16.84,2.46,21.89,7.38,5.04,4.92,7.57,11.9,7.57,20.93s-2.52,15.9-7.57,20.86Z"/>
</svg>