<?xml version="1.0" encoding="UTF-8"?>
<svg id="_Слой_1" data-name="Слой 1" xmlns="http://www.w3.org/2000/svg" viewBox="0 0 426.83 426.89">
  <defs>
    <style>
      .cls-1 {
        fill: #492618;
        stroke-width: 0px;
      }
    </style>
  </defs>
  <path class="cls-1" d="M256.91,213.06l37.24-48.1-2.64-.03-35.68,46.16h-4.17v-45.8h-2.34v95.99h2.34v-47.58h2.96l38.57,41.09,6.06,6.49h.02s.66.69.66.69l1.72-1.75-44.73-47.15ZM254.71,213.69h.1l1.2,1.29-1.3-1.29Z"/>
  <path class="cls-1" d="M226.59,169.86c-4.11-2.12-9.05-3.18-14.8-3.18h-23.79v94.06h2.01v-40.87h21.78c5.75,0,10.69-1.06,14.8-3.18,4.12-2.12,7.28-5.16,9.49-9.14,2.21-3.97,3.31-8.73,3.31-14.28s-1.1-10.41-3.31-14.34c-2.21-3.93-5.37-6.96-9.49-9.08ZM230.86,211.26c-4.35,4.28-10.64,6.42-18.87,6.42h-21.98v-48.8h21.98c8.23,0,14.52,2.12,18.87,6.36,4.35,4.24,6.52,10.25,6.52,18.04s-2.18,13.7-6.52,17.98Z"/>
  <path class="cls-1" d="M163.79,169.86c-4.11-2.12-9.05-3.18-14.8-3.18h-23.79v94.06h2.01v-40.87h21.78c5.75,0,10.69-1.06,14.8-3.18,4.12-2.12,7.28-5.16,9.49-9.14,2.21-3.97,3.31-8.73,3.31-14.28s-1.1-10.41-3.31-14.34c-2.21-3.93-5.37-6.96-9.49-9.08ZM168.06,211.26c-4.35,4.28-10.64,6.42-18.87,6.42h-21.98v-48.8h21.98c8.23,0,14.52,2.12,18.87,6.36,4.35,4.24,6.52,10.25,6.52,18.04s-2.18,13.7-6.52,17.98Z"/>
</svg>