<?xml version="1.0" encoding="UTF-8"?>
<svg id="_Слой_1" data-name="Слой 1" xmlns="http://www.w3.org/2000/svg" viewBox="0 0 426.83 426.89">
  <defs>
    <style>
      .cls-1 {
        fill: #492618;
        stroke-width: 0px;
      }
    </style>
  </defs>
  <path class="cls-1" d="M364.4,310.89c-.8-.22-1.54-.14-2.22.13-.06-.27-.12-.53-.18-.74-.5-1.85-.99-3.71-1.45-5.58-.94-3.73-1.81-7.47-2.62-11.23-3.24-15.06-5.4-30.36-6.28-45.75-.49-8.63-.58-17.27-.25-25.91.05-1.26-1.37-1.6-2.16-1.02-3.96-15.61-9.05-30.92-15.27-45.78-.61-1.45-1.24-2.88-1.86-4.32.78-.72,1.22-1.61.81-2.73-.45-1.22-1.63-1.77-2.84-1.87-.62-1.37-1.23-2.73-1.87-4.09-.73-1.57-3.05-.2-2.32,1.36.42.89.82,1.78,1.22,2.68-17.65-.11-35.42-.69-53.02.86-1.71.15-1.73,2.84,0,2.69,16.55-1.46,33.25-1.03,49.86-.89.21.18.49.29.85.27,1.19-.05,2.39-.11,3.58-.16.12.26.23.52.34.77-2.13,1.11-4.43,1.86-6.75,2.47-5.08,1.35-10.29,2.31-15.43,3.42-10.63,2.29-21.23,4.85-32.01,6.33-3.96.54-7.93.97-11.91,1.37,3.62-2.67,6.69-6.07,8.5-10.23,2.5-5.72,2.16-11.68-.3-17.35-4.09-9.45-13.16-16.66-23.49-17.73-5.11-.53-10.39.54-14.96,2.86-4.93,2.51-8.72,6.55-11.19,11.48-5.05,10.08-7.06,24.47,2.51,32.69,3.63,3.12,8.31,4.65,13.05,4.95,2.62,3.49,7.59,2.92,11.36,1.68,3.87-1.28,7.54-3.07,10.93-5.32,5.19-.5,10.38-1.03,15.54-1.72,6.05-.82,12.03-1.97,18-3.25,6.18-1.33,12.36-2.67,18.54-4,5.59-1.21,11.41-2.09,16.72-4.29.53-.22,1.25-.49,1.98-.83,5.36,12.36,9.96,25.04,13.74,37.98,1.32,4.52,2.54,9.06,3.66,13.63.09.37.29.61.53.77-7.31,15.59-12.43,32.07-17.05,48.62-2.39,8.56-4.65,17.16-7.07,25.71-1.2,4.27-2.44,8.54-3.75,12.78-.3.98-.75,2.06-1.02,3.15-.37.09-.74.19-1.09.28-4.33,1.12-8.93.14-12.57-2.4-1.42-.99-2.77,1.34-1.36,2.32,2.75,1.93,6.01,3.02,9.37,3.2,1.7.09,3.43-.08,5.08-.48.14-.04.3-.09.47-.14.4,1.44,1.88,2.56,3.4,2.22,1.94-.43,2.31-2.7,1.18-4.12-.47-.58-1.01-.9-1.6-1.06.07-.18.13-.36.18-.51.32-1.02.64-2.04.95-3.07.56-1.83,1.1-3.66,1.64-5.5,1.1-3.75,2.15-7.51,3.19-11.28,4.17-15.12,8.06-30.33,13.11-45.19,2.29-6.73,4.84-13.37,7.73-19.86-.16,15.1.96,30.2,3.19,45.15,1.3,8.71,2.97,17.37,4.99,25.94.98,4.17,1.83,8.51,3.23,12.56,0,.02.01.04.02.05-1.12,1.51-1.93,3.07-3.49,4.25-1.64,1.24-3.63,1.97-5.67,2.11-1.72.12-1.73,2.81,0,2.69,3.05-.21,5.9-1.37,8.19-3.41,1.03-.92,1.8-2,2.54-3.14.4.35.88.61,1.44.73,1.39.3,3.05-.3,3.55-1.72.56-1.6-.59-3.09-2.12-3.51ZM220.12,173.58c-1.25-5.37-.22-10.98,1.67-16.06,1.82-4.88,4.49-9.48,8.8-12.56,3.75-2.68,8.27-4.25,12.87-4.49,9.4-.48,18.2,4.84,23.07,12.74,3.11,5.03,4.68,10.92,2.87,16.69-1.4,4.48-4.42,8.12-8.1,10.91-.08-.08-.16-.16-.23-.24-.09-.11-.18-.22-.27-.32-.04-.06-.09-.12-.13-.17-.36-.5-.67-1.04-.92-1.61,0-.01-.03-.06-.04-.1-.01-.03-.03-.07-.03-.08-.05-.14-.1-.27-.15-.41-.1-.29-.18-.59-.25-.89-.03-.14-.06-.28-.09-.43-.01-.07-.02-.14-.04-.21,0-.02,0-.02,0-.03-.05-.3-.06-.61-.06-.92-.02-.7-.61-1.38-1.34-1.34-.71.03-1.36.59-1.34,1.34.05,2.1.72,4.15,1.87,5.89-1.37.32-2.78.36-4.14.05-.85-.19-1.64-.47-2.38-.88-.29-.17-.51-.35-.67-.5-.08-.07-.12-.22-.13-.29.01.08.03-.02.02-.07,0,0,0,0,0-.01.37-.63.14-1.47-.48-1.84-.63-.37-1.47-.15-1.84.48-.71,1.22-.37,2.73.6,3.71.69.7,1.65,1.17,2.59,1.52-.65.13-1.3.26-1.95.37-1.34.24-2.54.23-3.83-.25-1.32-.49-2.58-1.19-3.84-1.8-1.55-.75-2.92,1.57-1.36,2.32,1.43.69,2.85,1.45,4.34,2.02.18.07.36.11.55.17-2.52.62-5.07,1-7.6.99-.42-.31-.96-.28-1.39-.04-2.7-.17-5.38-.81-7.96-2.11-4.6-2.32-7.55-6.58-8.7-11.54ZM241.38,189.77c3.33-.33,6.55-1.16,9.69-2.25-.72.32-1.44.63-2.18.9-2.06.76-5.11,1.86-7.51,1.35Z"/>
  <path class="cls-1" d="M236.38,154.02c-.37-.71-1.21-1.14-2-1.07-.29.02-.57.1-.83.23-.29.06-.57.19-.8.38-.09.05-.19.08-.27.16-.69.53-1.34,1.46-1,2.36.1.27.24.52.47.71.25.22.5.34.81.46.38.15.78.23,1.19.26.92.07,1.83-.32,2.34-1.1.47-.7.48-1.65.1-2.39Z"/>
  <path class="cls-1" d="M247.67,154.96c.25.22.5.34.81.46.38.15.78.23,1.19.26.92.07,1.83-.32,2.34-1.1.47-.7.48-1.65.1-2.39-.37-.71-1.21-1.14-2-1.07-.29.02-.57.1-.83.23-.29.06-.57.19-.8.38-.09.05-.19.08-.27.16-.69.53-1.34,1.46-1,2.36.1.27.24.52.47.71Z"/>
  <path class="cls-1" d="M240.09,175.19c3.66.99,7.15-.63,10.34-2.27.65-.33.83-1.24.48-1.84-.38-.66-1.19-.81-1.84-.48-2.56,1.32-5.43,2.76-8.27,1.99-1.67-.45-2.39,2.14-.71,2.59Z"/>
  <path class="cls-1" d="M139.1,114.81c1.5,1.46,3.67,1.71,5.66,1.97,2.32.31,4.71.34,6.95-.4,3.94-1.3,6.86-4.39,9.56-7.39,1.15-1.28-.74-3.19-1.9-1.9-2.23,2.48-4.61,5.2-7.78,6.49-1.76.72-3.64.83-5.51.67-1.52-.13-3.91-.2-5.07-1.33-1.24-1.21-3.14.69-1.9,1.9Z"/>
  <path class="cls-1" d="M138.31,99.81c.76.36,1.59.47,2.42.29.88-.2,1.62-.86,1.83-1.76.08-.37.12-.77.13-1.15,0-.35-.02-.73-.15-1.06-.19-.5-.5-.94-.98-1.19-.05-.03-.11-.04-.17-.07-.1-.17-.23-.31-.4-.39-.41-.18-.79-.3-1.24-.31-.34-.01-.7.04-1.02.15-.72.25-1.39.73-1.72,1.43-.34.71-.44,1.53-.2,2.29.25.75.77,1.43,1.5,1.77Z"/>
  <path class="cls-1" d="M151.6,96.85c.76.36,1.59.47,2.42.29.88-.2,1.62-.86,1.83-1.76.08-.37.12-.77.13-1.15,0-.35-.02-.73-.15-1.06-.19-.5-.5-.94-.98-1.19-.05-.03-.11-.04-.17-.07-.1-.17-.23-.31-.4-.39-.41-.18-.79-.3-1.24-.31-.34-.01-.7.04-1.02.15-.72.25-1.39.73-1.72,1.43-.34.71-.44,1.53-.2,2.29.25.75.77,1.43,1.5,1.77Z"/>
  <path class="cls-1" d="M175.13,106.24c.44-4.97-1.96-9.68-5.89-12.42-2.9-6.47-7.75-12.05-14.29-14.93-4.97-2.19-11.09-1.71-16.28-.57-2.67.58-5.31,1.56-7.57,3.1-2.45,1.66-4.58,3.87-6.61,6.01-3.71,3.92-6.26,8.36-7.23,13.56-.21.21-.43.43-.63.65-1.26,1.41-2.17,3.03-2.11,4.97.04,1.33.48,2.64,1.27,3.7-5.15,5.93-9.09,12.84-11.5,20.32-2.52,7.8-3.69,16.59-1.6,24.62,1.12,4.3,3.23,8.31,6.33,11.52.18.18.37.29.57.35-1.37,2.3-1.88,5.07-2.05,7.76-.53,8.49-.23,17.15.31,25.63.55,8.53,1.6,17.04,3.32,25.41.73,3.56,1.2,7.99,3.56,10.91.34.42.72.78,1.12,1.1-.1.18-.17.38-.19.63-.42,7.05-.67,14.1-.76,21.16-.04,3.49-.05,6.96-.68,10.4-.6,3.27-1.43,6.51-2.19,9.75-1.51,6.44-3.1,12.87-4.95,19.22-.92,3.17-1.92,6.32-3,9.44-.9,2.58-1.78,5.25-2.9,7.77-.32-.12-.66-.2-1.02-.21-1.3-.06-2.61.7-3.13,1.91-.53,1.24-.02,2.61,1.18,3.22,1.34.67,2.89.13,3.85-.92.02-.02.03-.04.04-.06.88.82,1.72,1.66,2.71,2.37,2.57,1.82,5.72,2.9,8.83,1.96,1.65-.5.95-3.1-.71-2.59-3.45,1.05-6.65-1.32-8.99-3.61-.17-.17-.35-.34-.52-.51.21-.52.4-1.05.6-1.54.77-1.89,1.49-3.81,2.18-5.73,2.59-7.26,4.67-14.7,6.53-22.18.92-3.67,1.78-7.35,2.64-11.03.89-3.84,1.83-7.68,2.07-11.63.27-4.4.16-8.83.29-13.24.12-4.42.32-8.84.58-13.26,1.96.66,4.19.72,6.22.59,2.13-.13,4.25-.46,6.39-.56,2.05-.09,3.94.32,5.96.51,1.38.13,2.62-.18,3.7-.77,4.45,12.22,7.91,24.76,10.97,37.4,1.59,6.57,3.11,13.16,4.53,19.76,1.25,5.8,2.36,11.8,2.13,17.77-.39.1-.77.25-1.13.49-1.1.72-1.68,2.05-1.23,3.31.37,1.05,1.44,1.88,2.58,1.78,1.52-.14,2.12-1.53,2.28-2.86.02,0,.03,0,.05,0,1.32.28,2.52.47,3.87.25,2.49-.4,4.86-2,5.38-4.59.34-1.69-2.25-2.41-2.59-.71-.25,1.23-1.09,1.99-2.25,2.41-1.44.52-2.71.23-4.15-.06-.03,0-.07-.01-.1-.02.1-2.86-.12-5.75-.48-8.57-.93-7.4-2.79-14.68-4.47-21.94-1.68-7.28-3.45-14.54-5.42-21.75-2.25-8.21-4.77-16.34-7.71-24.33-.02-.05-.05-.1-.07-.14.62-.7,1.15-1.5,1.59-2.35,3.7-7.07,4.45-15.67,4.17-23.5-.32-8.85-.75-17.71-1.28-26.54-.17-2.82-.41-5.65-.81-8.46.24-.04.48-.14.7-.33,5.64-4.98,10.01-11.16,13.99-17.5,1.94-3.08,4.2-6.21,5.52-9.63.73-1.9.88-3.93,1.04-5.94.17-2.12.32-4.25.44-6.37.26-4.46.39-8.93.44-13.4,1.24-1.07,2.36-2.26,3.34-3.61.82-1.14,1.4-2.32,1.65-3.57.42-.09.8-.37.96-.9.79-2.55.93-5.34.24-7.92.21-.24.35-.56.38-.91ZM172.38,110.21c.01-.43.02-.85.01-1.28.08.51.11,1.02.11,1.54-.04-.09-.08-.17-.13-.26ZM172.13,102.38c-.11-.12-.22-.22-.33-.34-.09-.5-.2-1-.31-1.49.27.59.48,1.2.65,1.83ZM129.42,86.3c1.89-1.81,3.93-3.37,6.39-4.33,2.35-.92,4.87-1.4,7.37-1.64,2.45-.23,5.01-.38,7.45.04,4.94.85,9.27,4.43,12.39,8.19.88,1.05,1.63,2.19,2.29,3.38-.12-.03-.23-.08-.35-.11-1.67-.44-2.39,2.15-.71,2.59.99.26,1.92.65,2.76,1.14.5,1.26.98,2.54,1.39,3.83-1.14-.69-2.34-1.28-3.51-1.78-.67-.28-1.48.3-1.65.94-.21.78.27,1.37.94,1.65,1.78.75,3.66,1.8,5.17,3.18.16,1.06.26,2.12.32,3.19-1.28-1.25-2.76-2.28-4.37-2.99-.67-.3-1.44-.19-1.84.48-.34.57-.18,1.55.48,1.84,2.37,1.05,4.45,2.8,5.78,5.02,0,.03,0,.05,0,.08-.04,2.53-.66,5.21-1.84,7.46-1.1,2.11-2.9,3.73-4.74,5.19-1.99,1.58-4.08,3.18-6.58,3.82-2.88.74-6.06.89-9.03.99-3.13.11-6.25-.18-9.3-.9-2.96-.7-5.87-1.72-8.48-3.28-2.4-1.43-4.58-3.19-6.8-4.88-.02-.04-.03-.08-.05-.12-.99-1.93-1.77-3.99-2.34-6.09.54-.3,1.03-.51,1.63-.7.38-.12.78-.22,1.17-.3.44-.09.54-.1.99-.13.4-.03.8-.03,1.21,0,.49.02.64.04,1.07.12.71.13,1.45-.2,1.65-.94.18-.65-.22-1.52-.94-1.65-1.76-.33-3.54-.3-5.28.15-.72.18-1.42.45-2.09.77-.03-.18-.05-.37-.08-.55,0-.01,0-.02,0-.03.01-.04.02-.07.03-.09.01-.02.03-.05.05-.09.04-.08.09-.16.13-.24.11-.2.23-.39.36-.57.06-.08.11-.16.17-.24.02-.03.02-.03.03-.04,0,0,0,0,.02-.02.27-.3.52-.6.82-.87.16-.15.33-.29.5-.43.02-.02.02-.02.03-.03.09-.06.18-.13.27-.19.33-.23.67-.43,1.03-.61.16-.08.32-.15.48-.23.04-.02.11-.04.13-.05.09-.04.19-.07.28-.1.4-.14.8-.24,1.21-.32.1-.02.2-.04.29-.05.01,0,.02,0,.03,0,0,0,.01,0,.03,0,.22-.01.44-.04.66-.04.7-.02,1.38-.6,1.34-1.34-.03-.71-.59-1.37-1.34-1.34-2.03.07-4.05.73-5.7,1.92-.42.31-.81.64-1.18.99,0-1.2.08-2.4.25-3.59,1.87-1.63,4.14-2.71,6.58-3.2.71-.14,1.12-.99.94-1.65-.2-.74-.94-1.08-1.65-.94-1.73.35-3.41.98-4.96,1.86.73-2.21,1.8-4.32,3.28-6.25,1.61-2.1,3.53-3.98,5.44-5.81ZM142.85,164.64c-.44-.56-.93-1.07-1.52-1.5-2.68-1.93-6.66-1.25-8.56-4.32-1.53-2.49-1.58-5.88-1.04-8.68.29-1.48.76-3.02,2.15-3.8,1.5-.84.17-3.13-1.32-2.34-.4-.13-.85-.05-1.2.4-2.41,3.01-4.29,6.33-5.55,9.98-.91,2.65-1.63,6.46-4.55,7.62-1.25.5-2.63.51-3.99.59-.03-.26-.17-.52-.44-.74-3.23-2.61-5.1-6.29-6.16-10.25-1.08-4.05-1.96-8.76-1.2-12.93,1.51-8.36,4.55-16.59,8.31-24.21.11,0,.21,0,.32-.02.62,2.14,1.46,4.22,2.47,6.2.1.2.23.35.37.45.09.16.22.31.39.44,2.31,1.75,4.56,3.59,7.05,5.08,2.54,1.52,5.37,2.58,8.23,3.33,5.94,1.55,11.99,1.39,18.04.6,2.19-.29,4.14-.89,5.99-1.89-1.29,6.76-3.06,13.47-5.48,19.91-2.41,6.4-6.05,12.66-12.22,16.04-.03.01-.05.03-.07.05ZM110.9,164.87c-5.43-5.63-7.01-13.59-6.49-21.17.51-7.47,2.79-14.86,6.33-21.44.67-1.24,1.4-2.45,2.16-3.64-.97,2.27-1.86,4.58-2.66,6.91-1.51,4.4-2.95,9.02-3.58,13.64-.31,2.32-.07,4.6.24,6.9.32,2.4.72,4.79,1.41,7.11,1.12,3.75,3.01,7.32,5.93,9.95-1.11.4-2.12,1.03-2.99,1.86-.05.05-.09.1-.14.15-.06-.1-.12-.19-.21-.28ZM145.28,222.61c-.61,3.65-1.53,7.57-3.26,10.88-.65,1.24-1.5,2.55-2.78,3.22-1.64.85-3.55.1-5.27-.08-4.09-.43-8.15.75-12.24.53-1.56-.09-3.25-.44-4.46-1.51-1.32-1.17-1.8-3.01-2.22-4.65-4.06-16.05-5.17-32.78-5.02-49.29.04-3.85-.32-8.25,1.16-11.89.6-1.46,1.59-2.86,2.96-3.69,1.51-.92,3.28-.86,4.98-1.01,3.39-.3,5.86-1.81,7.36-4.91.94-1.94,1.55-4,2.28-6.01.1,2.04.55,4.09,1.58,5.83.71,1.21,1.72,2.25,2.94,2.95,1.47.84,3.14,1.07,4.74,1.55,3.57,1.09,4.34,4.91,5.04,8.14,1.74,8.1,1.7,16.56,2.09,24.81.21,4.29.43,8.58.61,12.87.17,4.1.17,8.2-.51,12.26ZM164.73,145.62c-.36,2.35-1.52,4.34-2.73,6.34-4.64,7.65-9.42,15.36-16.05,21.47-.06-.33-.11-.67-.18-1-.37-1.79-.8-3.74-1.57-5.49.02-.01.05-.02.07-.03,6.38-3.49,10.32-9.78,12.96-16.37,3.02-7.54,5.02-15.56,6.41-23.55.02-.14.02-.26.01-.39.74-.55,1.47-1.12,2.18-1.72-.07,4.31-.21,8.61-.48,12.91-.16,2.59-.23,5.25-.63,7.82Z"/>
</svg>