<?xml version="1.0" encoding="UTF-8"?>
<svg id="_Слой_1" data-name="Слой 1" xmlns="http://www.w3.org/2000/svg" viewBox="0 0 426.83 426.89">
  <defs>
    <style>
      .cls-1 {
        fill: #492618;
        stroke-width: 0px;
      }
    </style>
  </defs>
  <path class="cls-1" d="M172.19,161.14c1.25-.53,2.4-1.32,3.29-2.35.18.04.37.03.57-.09,2.79-1.55,4.46-4.5,4.51-7.58,2.51-4.05,3.75-8.91,2.65-13.52-.78-3.28-3.35-6.4-5.83-8.59-2.84-2.5-6.24-3.36-9.91-3.9-3.24-.48-6.36-.18-9.29,1.1-.23-.05-.46-.09-.7-.12-1.13-.15-2.27-.03-3.22.65-.76.55-1.34,1.34-1.59,2.24-.43-.15-.89-.27-1.15-.33-10.33-2.78-21.52-2.71-31.06,2.56-5.49,3.03-10.65,7.78-13.36,13.53-2.8,5.94-2.96,14.35.66,20.05.01.02.03.03.05.05-.19.17-.37.37-.55.59-1.42,1.79-1.71,4.11-1.68,6.33.15,10.8,1.69,21.91,4.62,32.3.6,2.13,1.08,4.79,2.59,6.5.26.29.55.53.86.73-.05.11-.08.23-.08.38.05,4.26.18,8.52.42,12.78.11,2.09.3,4.18.17,6.27-.14,2.25-.57,4.48-.93,6.7-1.33,8.22-2.8,16.46-5.43,24.39-.01.03-.03.08-.05.12-.98-.26-2-.06-2.47,1.11-.61,1.51,1.05,2.61,2.39,2.02.35-.15.63-.42.88-.73.71.59,1.43,1.15,2.24,1.59,1.64.89,3.47,1.3,5.26.65,1.03-.37.59-2.03-.46-1.65-2.4.87-4.44-.68-6.22-2.12.39-1.05.61-2.21.85-3.01,1.49-4.97,2.58-10.06,3.5-15.16.45-2.48.86-4.97,1.26-7.45.42-2.6.92-5.22.93-7.86.01-2.83-.28-5.66-.39-8.48-.12-2.93-.2-5.87-.23-8.8,1.09.28,2.28.3,3.4.18,2.69-.28,5.15-.87,7.87-.68,1.11.08,2.07-.15,2.88-.65,3.34,7.5,6.08,15.25,8.56,23.07,1.25,3.94,2.45,7.89,3.61,11.85,1.15,3.92,2.22,7.92,2.36,12.02-1.03.4-1.85,1.43-1.28,2.56.66,1.31,2.49,1.24,2.91-.21.07-.23.11-.48.13-.73.21.02.43.05.65.07.76.08,1.54.02,2.27-.23,1.38-.46,2.53-1.5,2.76-2.98.17-1.08-1.49-1.55-1.65-.46-.15.96-.8,1.55-1.72,1.83-.8.24-1.56.08-2.34,0,0-.14-.02-.28-.03-.42-.07-1.24-.22-2.48-.42-3.7-.78-4.81-2.35-9.48-3.77-14.13-1.46-4.8-2.97-9.58-4.62-14.31-1.83-5.23-3.84-10.4-6.11-15.46.2-.26.39-.54.56-.85,1.12-2.05,1.58-4.54,1.91-6.83.37-2.59.39-5.18.16-7.79-.47-5.23-1.17-10.46-1.81-15.67,3.4.95,8.05.87,11.43.01,2.8-.71,5.77-1.46,8.41-2.65,2.05-.92,4.03-2,6.09-2.9,1.7-.75,3.17-1.71,4.56-2.97,3.13-2.82,6.21-5.6,9.78-7.86.4-.25.46-.67.33-1.02ZM112.58,139.7c5.1-5.77,12.12-9.51,19.71-10.73,1.97-.32,3.95-.45,5.93-.45-5.08.12-10.12,1.42-14.8,3.84-3.28,1.7-6.33,3.88-8.99,6.44-1.64,1.57-3.34,3.36-4.33,5.43-1.44,3.02-1.7,6.41-1.56,9.71.12,2.91,1.69,6.74,3.52,9.28-1.01.2-1.96.35-2.83.72,0,0,0,0,0,0-4.76-7.5-2.14-18.03,3.35-24.24ZM131.73,198.94c-.12,2.54-.56,5.12-1.37,7.54-.31.92-.73,1.91-1.45,2.58-1.09,1.04-2.43.61-3.78.56-2.51-.09-4.93.76-7.42.87-1.15.05-2.4-.04-3.33-.79-.92-.74-1.3-1.93-1.66-3.01-3.27-10.11-4.73-20.74-5.34-31.31-.15-2.64-.67-5.82.66-8.25.66-1.2,1.65-1.89,2.99-2.16,1.12-.22,2.27-.23,3.33-.72,1.93-.91,2.68-2.95,3.19-4.89.17-.63.34-1.24.53-1.84.18,1.09.51,2.12.95,2.94.87,1.62,2.3,2.49,4.07,2.84,1.1.22,2.24.31,3.07,1.15.9.91,1.3,2.25,1.67,3.44,1.54,4.96,1.91,10.24,2.51,15.38.61,5.16,1.63,10.46,1.38,15.67ZM160.69,168.95c-1.79,1.56-3.71,2.36-5.82,3.38-1.3.63-2.59,1.27-3.9,1.88-1.33.62-2.72.98-4.13,1.42-4.33,1.34-10.87,2.15-15.51,1.01-.12-.94-.24-1.88-.38-2.81,2.18,1.07,4.95.97,7.31.94,2.17-.03,4.4.03,6.52-.44,4.7-1.04,9.56-2.79,13.8-5.09,2.13-1.16,4.19-2.46,6.2-3.84-1.37,1.17-2.72,2.37-4.09,3.57ZM157.22,168.02c-2.61,1.37-5.41,2.37-8.2,3.3-2.59.86-5.07,1.56-7.81,1.65-1.65.05-3.31.12-4.97.08-1.5-.04-3.23-.06-4.6-.77-.36-.19-.7-.11-.94.09-.21-1.18-.45-2.36-.76-3.52-.6-2.26-1.34-5.09-3.54-6.33-1.09-.62-2.35-.61-3.53-.95-1.24-.36-2.06-1.22-2.54-2.41-.71-1.79-1.14-5.61.68-6.89.9-.63.04-2.11-.87-1.48-.04.03-.07.06-.11.09-.28-.01-.56.08-.76.37-1.42,2.06-2.44,4.32-3.07,6.74-.46,1.78-.84,3.8-2.45,4.7-1.84-2.25-3.48-6.36-3.54-9.2-.06-2.88.11-5.85,1.39-8.48.9-1.84,2.41-3.42,3.86-4.84,5.2-5.05,12-8.67,19.2-9.73,5.33-.78,10.7,0,15.7,1.91.09.03.17.03.25.04-.6.81-1.15,1.65-1.64,2.53-.06.11-.08.21-.1.31-.07.12-.13.25-.14.41-.23,4.09-.25,7.86,1.25,11.74,1.32,3.43,3.45,6.35,5.86,9.1,1.85,2.11,4.56,3.45,7.35,4.07.11.16.27.29.47.36,1.07.4,2.19.65,3.33.76-3.1,2.34-6.37,4.53-9.8,6.34ZM167.92,158.93c-1.86.44-3.6.1-5.4-.46-1.61-.51-3.23-1.06-4.5-2.22-2.63-2.4-4.92-5.71-6.27-9-.73-1.77-1.29-3.69-1.47-5.6-.18-1.97,0-3.96.11-5.92,0,0,0,0,.01-.01.68-1.22,1.49-2.39,2.41-3.47.13.07.26.13.39.21.12.07.23.14.34.22.06.04.11.08.17.12.01,0,.02.02.04.03,0,0,0,0,0,0,.2.17.4.34.58.52.1.1.19.2.28.3.04.05.09.1.13.15,0,0,.03.04.06.07.32.42.59.88.8,1.37.18.41.82.54,1.17.31.43-.28.5-.73.31-1.17-.44-1-1.12-1.92-1.96-2.63-.34-.29-.71-.54-1.09-.77.08-.08.16-.16.25-.24.05-.01.11-.03.16-.04.02,0,.02,0,.03,0,0,0,0,0,.03,0,.26-.03.53-.03.79-.01.05,0,.33.03.23.02.14.02.27.04.41.07.26.06.51.13.75.22.8.29,1.69.95,2.18,1.63.27.37.74.56,1.17.31.37-.22.58-.8.31-1.17-.82-1.12-1.91-1.94-3.21-2.42-.27-.1-.55-.17-.83-.23.62-.43,1.27-.81,1.94-1.14,1.52.4,2.92,1.17,4.05,2.28.79.77,2-.44,1.21-1.21-.84-.82-1.8-1.5-2.85-2.01,1.12-.32,2.29-.51,3.5-.52,1.77-.01,3.52.3,5.26.65,1.66.34,3.28.73,4.75,1.61,2.63,1.57,4.91,4.24,6.38,6.92,2.14,3.89,1.44,8.55-.51,12.55-.01-.04-.02-.09-.04-.13-.36-1.04-2.02-.59-1.65.46.23.66.35,1.32.39,1.99-.47.73-.98,1.43-1.52,2.07-.04-.85-.15-1.69-.3-2.49-.22-1.08-1.87-.62-1.65.46.24,1.22.38,2.62.19,3.92-.5.48-1.04.94-1.6,1.38.22-1.2.24-2.43.02-3.63-.08-.46-.64-.71-1.05-.6-.48.13-.68.6-.6,1.06.28,1.53.07,3.25-.61,4.7-1.17.68-2.41,1.21-3.69,1.51Z"/>
  <path class="cls-1" d="M170,150.58c-2.17-.3-4.49-.61-6.35-1.86-.92-.62-1.61-1.5-2.15-2.45-.3-.53-.57-1.07-.81-1.63-.22-.49-.51-1.08-.41-1.63.08-.46-.13-.92-.6-1.06-.42-.11-.97.14-1.06.6-.26,1.43.46,2.81,1.1,4.05.62,1.2,1.42,2.34,2.49,3.18,2.09,1.65,4.76,2.1,7.33,2.45.46.06.92-.11,1.06-.6.11-.4-.14-.99-.6-1.06Z"/>
  <path class="cls-1" d="M167,137.01c.16.12.34.18.54.19.21.02.42-.06.6-.16.26-.13.54-.31.67-.59.09-.18.1-.38.07-.57.04-.11.06-.22.03-.34-.06-.33-.28-.61-.55-.8-.28-.2-.64-.25-.97-.19-.33.06-.61.29-.8.55-.21.29-.25.67-.18,1.01.07.36.3.68.59.9Z"/>
  <path class="cls-1" d="M173.26,143.93c.16.12.34.18.54.19.21.02.42-.06.6-.16.26-.13.54-.31.67-.59.09-.18.1-.38.07-.57.04-.11.06-.22.03-.34-.06-.33-.28-.61-.55-.8-.28-.2-.64-.25-.97-.19-.33.06-.61.29-.8.55-.21.29-.25.67-.18,1.01.07.36.3.68.59.9Z"/>
  <path class="cls-1" d="M335.97,158.25c-2.22-2.29-4.84-4.17-7.99-4.88-3.02-.68-6.23-.4-9.1.76-5.69,2.31-9.33,8-9.82,14.03-.24,2.88.32,5.72,1.85,8.11-2.87,2.14-5.44,4.71-7.91,7.29-3.32,3.47-6.48,7.09-9.51,10.81-2.68,3.3-5.31,6.68-7.6,10.26-1.99,3.11-3.93,6.78-3.91,10.56l-1.29,1.11v-42.18h-2.01v89.79h2.01v-44.51h1.58l35.31,44.51c2.63-.16,5.05-.8,7.49-1.66.96-.2,1.91-.41,2.87-.6.72-.14,1.14-.91.95-1.54-.21-.68-.96-1.01-1.68-.87-2.79.54-5.57,1.17-8.32,1.85l-33.67-41.77c-.31-.55-.58-1.12-.78-1.73-.12-.35-.19-.71-.26-1.07l40.83-34.86c5.28-.23,10.65-1.36,13.99-5.8,4.27-5.68,1.41-13.02-3.03-17.6ZM284.25,213.26c.48-2.56,1.87-5.06,3.2-7.18,4.5-7.17,10.18-13.74,15.95-19.9,2.73-2.91,5.55-5.91,8.78-8.28,2.23,2.4,5.28,3.68,8.45,4.24l-36.39,31.12ZM324.45,177.36s0-.05,0-.07c0,.02,0,.03,0,.05,0,0,0,0,0,0,0,0,0,0,0,0,0,0,0,0,0,0ZM324.45,177.37h0s0,.01,0,.02c0,.01,0,0,0,.01,0,0,0-.02,0-.03ZM324.52,177.46s-.02-.03-.05-.06c.03.04.04.04.03.03.04.04.07.09.12.12-.06-.05-.09-.07-.1-.08ZM337.9,173.78c-1.8,3.1-4.82,4.57-8.15,5.26.43-.46.83-.94,1.24-1.41.37-.42.42-1.05,0-1.47-.38-.38-1.1-.43-1.47,0-.51.58-.99,1.19-1.53,1.74-.49.5-.99.77-1.66.94-.12.03-.25.05-.38.08.12-.16.23-.33.31-.51.23-.47.31-.94.23-1.46-.08-.51-.4-.91-.81-1.21-.44-.32-1.18-.09-1.42.37-.24.46-.13.91.19,1.25,0,.03-.01.05-.02.06-.04.06-.07.12-.11.19,0,.01-.03.05-.05.08-.02.03-.04.05-.05.06-.05.05-.09.11-.14.16-.08.09-.16.17-.25.26-.09.09-.19.18-.29.26-.04.03-.08.07-.12.1-.02,0-.03.02-.04.03-.2.15-.42.28-.64.4-.12.06-.23.12-.35.17,0,0,0,0,0,0-.05.02-.1.04-.15.06-.17.06-.34.1-.51.15.03-.21.04-.42.05-.64.02-.81-.12-1.64-.42-2.38-.1-.26-.23-.47-.48-.62-.22-.13-.55-.19-.8-.1-.49.16-.94.74-.73,1.28.12.31.22.62.28.95,0,.05.07.24.05.28-.02-.16-.02-.18-.01-.07,0,.02,0,.05,0,.07.02.18.02.35.02.53,0,.17-.01.33-.03.49,0,.02,0,.03,0,.04h0c-.01.08-.03.16-.04.24-.03.13-.06.26-.1.39-2.06-.55-3.99-1.51-5.52-3.02-2.05-2.02-2.91-4.64-2.88-7.48.06-5.2,2.87-10.38,7.56-12.79,4.88-2.51,10.59-1.6,14.62,2.03,4.07,3.67,7.77,9.83,4.62,15.25Z"/>
  <path class="cls-1" d="M329.32,159.74c-.11-.08-.23-.12-.35-.17-.13-.05-.26-.11-.39-.14-.03,0-.07,0-.1,0,0,0,0,0,0,0-.12-.04-.27-.05-.4-.06-.07,0-.13.01-.2.02,0,0,0,0,0,0-.16-.02-.33.01-.5.04-.31.06-.58.23-.82.43-.24.2-.42.51-.5.81-.08.31-.08.67.02.98.11.31.27.62.52.84.12.1.24.2.38.28.22.11.39.16.63.19.32.04.65.02.95-.1.18-.07.36-.15.52-.26.16-.11.32-.23.45-.36.32-.32.58-.76.54-1.23-.02-.26-.07-.51-.22-.73-.16-.24-.3-.36-.54-.53Z"/>
  <path class="cls-1" d="M320.4,163.22c-.11-.08-.23-.12-.35-.17-.13-.05-.26-.11-.39-.14-.03,0-.07,0-.1,0,0,0,0,0,0,0-.12-.04-.27-.05-.4-.06-.07,0-.13.01-.2.02,0,0,0,0,0,0-.16-.02-.33.01-.5.04-.31.06-.58.23-.82.43-.24.2-.42.51-.5.81-.08.31-.08.67.02.98.11.31.27.62.52.84.12.1.24.2.38.28.22.11.39.16.63.19.32.04.65.02.95-.1.18-.07.36-.14.52-.26.16-.11.32-.23.45-.36.32-.32.58-.76.54-1.23-.02-.26-.07-.51-.22-.73-.16-.24-.3-.36-.54-.53Z"/>
  <path class="cls-1" d="M328.1,171.3c.19-.15-.11.07-.14.09-.07.05-.15.09-.23.13-.09.05-.18.09-.27.13-.04.02-.08.03-.12.05-.19.07-.39.13-.59.17-.09.02-.17.04-.26.05-.02,0-.18.03-.23.04-.01,0-.01,0-.03,0-.07,0-.13.01-.2.02-.1,0-.2.01-.3.02-.23.01-.47.01-.7,0-.47,0-.94-.04-1.41-.07-.54-.04-1.06.51-1.04,1.04.03.6.46,1,1.04,1.04,1.08.07,2.14.11,3.21-.05,1.02-.16,1.94-.57,2.75-1.21.43-.34.38-1.12,0-1.47-.46-.42-1.01-.36-1.47,0Z"/>
  <path class="cls-1" d="M201.2,177.55c-3.91-2.01-8.6-3.02-14.06-3.02h-22.59v89.34h1.91v-38.82h20.69c5.46,0,10.15-1.01,14.06-3.02,3.91-2.01,6.91-4.91,9.01-8.68,2.1-3.77,3.15-8.29,3.15-13.56s-1.05-9.88-3.15-13.62c-2.1-3.73-5.1-6.61-9.01-8.62ZM205.25,216.87c-4.13,4.06-10.1,6.1-17.92,6.1h-20.88v-46.35h20.88c7.82,0,13.79,2.01,17.92,6.04,4.13,4.03,6.2,9.74,6.2,17.13s-2.07,13.02-6.2,17.08Z"/>
  <path class="cls-1" d="M257.86,177.55c-3.91-2.01-8.6-3.02-14.06-3.02h-22.59v89.34h1.91v-38.82h20.69c5.46,0,10.15-1.01,14.06-3.02,3.91-2.01,6.91-4.91,9.01-8.68,2.1-3.77,3.15-8.29,3.15-13.56s-1.05-9.88-3.15-13.62c-2.1-3.73-5.1-6.61-9.01-8.62ZM261.92,216.87c-4.13,4.06-10.1,6.1-17.92,6.1h-20.88v-46.35h20.88c7.82,0,13.79,2.01,17.92,6.04,4.13,4.03,6.2,9.74,6.2,17.13s-2.07,13.02-6.2,17.08Z"/>
</svg>